<?xml version="1.0" encoding="utf-8"?>
<!-- Generator: Adobe Illustrator 16.0.0, SVG Export Plug-In . SVG Version: 6.00 Build 0)  -->
<!DOCTYPE svg PUBLIC "-//W3C//DTD SVG 1.1//EN" "http://www.w3.org/Graphics/SVG/1.1/DTD/svg11.dtd">
<svg version="1.1" id="Layer_1" xmlns="http://www.w3.org/2000/svg" xmlns:xlink="http://www.w3.org/1999/xlink" x="0px" y="0px"
	 width="25.688px" height="35.375px" viewBox="0 0 25.688 35.375" enable-background="new 0 0 25.688 35.375" xml:space="preserve">
<circle fill="#FFFFFF" cx="13.378" cy="12.93" r="6.02"/>
<path fill="#026E65" d="M12.508,0.374C5.394,0.587,0.178,7.065,0.371,13.521c0.153,5.148,13.176,21.583,13.176,21.583
	S25.563,17.921,25.41,12.773C25.217,6.316,19.623,0.161,12.508,0.374z M13.061,18.824c-3.17,0.095-5.815-2.397-5.911-5.565
	c-0.096-3.172,2.396-5.818,5.567-5.913c3.17-0.095,5.816,2.398,5.91,5.569C18.723,16.084,16.23,18.729,13.061,18.824z"/>
<g>
	<polygon fill="#026E65" points="16.608,10.311 9.17,10.311 9.884,11.206 15.204,11.217 14.563,11.952 12.714,11.925 16.084,16.393 
		16.288,15.456 14.441,13.108 	"/>
	<path fill="#026E65" d="M15.928,16.393c-0.012,0.002-0.279,0.001-0.279,0.001s-3.19-4.113-3.297-4.114l-1.947-0.315l2.099-0.036
		L15.928,16.393z"/>
</g>
</svg>
