<?xml version="1.0" encoding="utf-8"?>
<!-- Generator: Adobe Illustrator 16.0.0, SVG Export Plug-In . SVG Version: 6.00 Build 0)  -->
<!DOCTYPE svg PUBLIC "-//W3C//DTD SVG 1.1//EN" "http://www.w3.org/Graphics/SVG/1.1/DTD/svg11.dtd">
<svg version="1.1" id="Layer_1" xmlns="http://www.w3.org/2000/svg" xmlns:xlink="http://www.w3.org/1999/xlink" x="0px" y="0px"
	 width="25.688px" height="35.375px" viewBox="0 0 25.688 35.375" enable-background="new 0 0 25.688 35.375" xml:space="preserve">
<g>
	<circle fill="#FFFFFF" cx="13.378" cy="12.93" r="6.02"/>
	<path fill="#026E65" d="M12.508,0.374C5.394,0.587,0.178,7.065,0.371,13.521c0.154,5.148,13.176,21.583,13.176,21.583
		S25.563,17.921,25.41,12.773C25.217,6.316,19.623,0.161,12.508,0.374z M13.061,18.824c-3.17,0.095-5.816-2.397-5.911-5.565
		c-0.096-3.172,2.396-5.818,5.567-5.913c3.17-0.095,5.816,2.398,5.91,5.569C18.723,16.084,16.23,18.729,13.061,18.824z"/>
	<g>
		<polygon fill="#026E65" points="15.627,10.771 12.869,9.18 10.113,10.729 10.115,13.949 10.922,14.479 10.931,11.205 
			12.871,10.121 14.783,11.197 14.791,13.488 12.871,14.591 12.873,15.54 14.879,16.678 15.629,16.173 13.686,15.073 15.629,13.952 
					"/>
		<polygon fill="#026E65" points="13.932,13.01 12.871,13.587 11.794,12.977 11.789,11.752 12.871,11.117 13.924,11.758 
			14.535,11.328 12.869,10.4 11.172,11.355 11.173,13.338 11.172,14.582 11.76,14.905 11.781,13.688 12.873,14.319 14.535,13.361 		
			"/>
		<polygon fill="#026E65" points="12.264,12.71 12.513,12.553 12.514,12.142 12.871,11.942 13.223,12.114 13.219,12.584 
			13.41,12.688 13.723,12.852 13.723,12.852 13.723,11.868 12.871,11.377 12.021,11.856 12.021,12.85 12.021,12.85 		"/>
	</g>
</g>
</svg>
